HIERARCHY
ROOT Hips
{
	OFFSET -3.958830 18.904000 13.208200
	CHANNELS 6 Xposition Yposition Zposition Zrotation Yrotation Xrotation 
	JOINT LHipJoint
	{
		OFFSET 0.000000 0.000000 0.000000
		CHANNELS 3 Zrotation Yrotation Xrotation
		JOINT LeftUpLeg
		{
			OFFSET 1.800000 -1.400000 0.085000
			CHANNELS 3 Zrotation Yrotation Xrotation
			JOINT LeftLeg
			{
				OFFSET 2.215000 -6.000000 0.000000
				CHANNELS 3 Zrotation Yrotation Xrotation
				JOINT LeftFoot
				{
					OFFSET 2.500000 -6.900000 0.000000
					CHANNELS 3 Zrotation Yrotation Xrotation
					JOINT LeftToeBase
					{
						OFFSET 0.200000 -0.500000 1.950000
						CHANNELS 3 Zrotation Yrotation Xrotation
						End Site
						{
							OFFSET 0.000000 0.000000 0.000000
						}
					}
				}
			}
		}
	}
	JOINT RHipJoint
	{
		OFFSET 0.000000 0.000000 0.000000
		CHANNELS 3 Zrotation Yrotation Xrotation
		JOINT RightUpLeg
		{
			OFFSET -1.800000 -1.400000 0.085000
			CHANNELS 3 Zrotation Yrotation Xrotation
			JOINT RightLeg
			{
				OFFSET -2.215000 -6.000000 0.000000
				CHANNELS 3 Zrotation Yrotation Xrotation
				JOINT RightFoot
				{
					OFFSET -2.500000 -6.900000 0.000000
					CHANNELS 3 Zrotation Yrotation Xrotation
					JOINT RightToeBase
					{
						OFFSET -0.200000 -0.500000 1.950000
						CHANNELS 3 Zrotation Yrotation Xrotation
						End Site
						{
							OFFSET 0.000000 0.000000 0.000000
						}
					}
				}
			}
		}
	}
	JOINT LowerBack
	{
		OFFSET 0.000000 0.000000 0.000000
		CHANNELS 3 Zrotation Yrotation Xrotation
		JOINT Spine
		{
			OFFSET -0.087000 1.940000 -0.288900
			CHANNELS 3 Zrotation Yrotation Xrotation
			JOINT Spine1
			{
				OFFSET 0.000000 1.950000 0.060000
				CHANNELS 3 Zrotation Yrotation Xrotation
				JOINT Neck
				{
					OFFSET 0.000000 0.000000 0.000000
					CHANNELS 3 Zrotation Yrotation Xrotation
					JOINT Neck1
					{
						OFFSET 0.000000 1.600000 0.340000
						CHANNELS 3 Zrotation Yrotation Xrotation
						JOINT Head
						{
							OFFSET 0.000000 1.667000 -0.240000
							CHANNELS 3 Zrotation Yrotation Xrotation
							End Site
							{
								OFFSET 0.000000 0.000000 0.000000
							}
						}
					}
				}
				JOINT LeftShoulder
				{
					OFFSET 0.000000 0.000000 0.000000
					CHANNELS 3 Zrotation Yrotation Xrotation
					JOINT LeftArm
					{
						OFFSET 2.700000 1.550000 -0.730000
						CHANNELS 3 Zrotation Yrotation Xrotation
						JOINT LeftForeArm
						{
							OFFSET 5.450000 0.000000 0.000000
							CHANNELS 3 Zrotation Yrotation Xrotation
							JOINT LeftHand
							{
								OFFSET 3.450000 0.000000 0.000000
								CHANNELS 3 Zrotation Yrotation Xrotation
								JOINT LeftHandIndex1
								{
									OFFSET 0.750000 0.000000 0.000000
									CHANNELS 3 Zrotation Yrotation Xrotation
									End Site
									{
										OFFSET 0.000000 0.000000 0.000000
									}
								}
							}
						}
					}
				}
				JOINT RightShoulder
				{
					OFFSET 0.000000 0.000000 0.000000
					CHANNELS 3 Zrotation Yrotation Xrotation
					JOINT RightArm
					{
						OFFSET -2.700000 1.550000 -0.730000
						CHANNELS 3 Zrotation Yrotation Xrotation
						JOINT RightForeArm
						{
							OFFSET -5.450000 0.000000 0.000000
							CHANNELS 3 Zrotation Yrotation Xrotation
							JOINT RightHand
							{
								OFFSET -3.450000 0.000000 0.000000
								CHANNELS 3 Zrotation Yrotation Xrotation
								JOINT RightHandIndex1
								{
									OFFSET -0.750000 0.000000 0.000000
									CHANNELS 3 Zrotation Yrotation Xrotation
									End Site
									{
										OFFSET 0.000000 0.000000 0.000000
									}
								}
							}
						}
					}
				}
			}
		}
	}
}
MOTION
Frames: 7
Frame Time: 0.016667
-0.637240 15.800080 -1.832040 -3.023940 -25.437083 -8.304577 -16.166693 9.772901 6.955177 34.316288 -2.639595 -42.043784 -41.460669 38.424691 50.464109 2.008961 15.472964 -0.385534 -0.172590 -0.537940 0.197130 18.149702 -6.506511 3.578845 -38.721057 2.974238 -32.096548 32.658486 -22.700557 35.560858 -1.393903 -9.426105 0.753112 -0.369730 0.451160 0.653730 -2.603090 -3.975580 -10.467891 17.581355 0.364326 52.744854 5.865809 6.926402 1.115532 1.320439 2.043617 -6.755182 1.365248 -3.257437 37.031765 -19.957370 9.262080 -13.382000 -4.043787 9.938184 -2.585583 1.020306 18.256543 -2.044258 64.373288 -56.591555 -26.686213 -4.252769 2.689275 0.760180 0.247700 0.291050 0.054780 0.502379 -6.187449 5.915060 47.600610 -7.154740 -10.771107 79.574327 56.164654 35.943814 2.239742 -1.727439 -0.308910 0.182310 0.306780 -0.119120 
-0.672030 15.628620 -1.872160 -3.243716 -26.125305 -7.865048 -16.243073 9.523086 7.135332 34.886792 -1.267328 -44.405695 -44.237652 40.360387 49.670331 2.264576 15.480568 -0.275024 -0.227810 -0.555280 0.072790 18.149352 -6.075559 3.841276 -41.421722 3.296517 -32.559034 37.951834 -23.354957 32.641022 -1.462922 -9.526440 0.835771 -0.443670 0.515510 0.654220 -2.591377 -4.174579 -10.692591 19.645324 0.046738 53.870858 6.725081 7.417167 2.420752 1.398101 1.343470 -7.254299 -0.512032 -3.463347 40.801941 -19.363260 7.527160 -8.344690 -6.315848 10.471107 -1.559950 -2.370822 21.322114 -2.093655 46.890505 -55.847453 -17.703697 -4.241924 2.999956 0.657200 0.278780 0.282560 0.129060 2.561603 -5.982539 6.641451 47.987178 -11.303104 -12.553846 80.128970 65.610467 42.144580 2.384573 -1.577809 -0.230090 0.193610 0.289990 -0.009920 
-0.680590 15.514970 -1.902930 -4.606929 -26.858721 -7.168538 -16.338566 9.538609 7.240684 34.904027 -0.275693 -45.826447 -44.758984 41.854277 50.443435 2.427346 15.551250 -0.293527 -0.229130 -0.586340 0.108930 18.088255 -5.749827 3.938119 -40.828877 4.384541 -34.057919 40.069755 -23.924277 32.686636 -1.506803 -9.648016 0.776118 -0.502990 0.420200 0.682480 -2.415957 -4.604098 -10.834783 21.738084 -0.279700 55.881076 7.176853 9.036984 0.609445 2.338414 2.468803 -7.075626 1.566935 -4.365587 43.730048 -20.427830 8.464940 -3.580320 -7.277254 12.321358 -1.634916 -5.071738 18.827329 -1.410064 30.137596 -50.607701 -8.477711 -4.235436 3.411677 0.584370 0.260010 0.277400 0.087140 1.626543 -7.801514 6.790299 49.903900 -12.656923 -13.717078 59.475401 69.210910 32.890630 2.242229 -1.862315 -0.140330 0.029660 0.258500 -0.015750 
-0.669000 15.452380 -1.918490 -5.914448 -26.824167 -5.607780 -16.512186 9.772569 7.319455 33.772227 -0.263753 -48.485026 -41.106489 41.818833 53.726153 2.618291 15.799725 -0.404347 -0.137890 -0.558680 0.178540 17.948809 -5.361434 3.929476 -40.711419 4.934907 -35.023617 40.240026 -24.148357 33.049877 -1.546075 -9.717509 0.681271 -0.573820 0.263440 0.814900 -1.971302 -5.649853 -10.972423 22.270864 -0.024857 57.330743 9.017404 11.475176 -2.768684 3.208386 3.062263 -6.887868 2.758061 -4.414042 45.861414 -21.221950 10.000620 0.579960 -8.253975 13.850733 -2.200140 -10.020896 14.402623 -1.998330 21.978968 -41.564861 -3.562068 -4.108313 3.753811 0.518530 0.205280 0.318490 0.077340 0.991688 -8.351640 7.394735 51.699708 -13.907610 -15.957410 37.081975 73.578549 22.222957 2.194972 -2.152342 0.050560 -0.271700 0.185090 -0.006270 
-0.696550 15.443930 -1.948010 -5.328311 -24.905642 -5.352285 -16.687907 10.267617 7.073661 30.321781 -2.449301 -49.867058 -34.439370 39.765753 58.728303 2.812547 16.101898 -0.492367 -0.117800 -0.545480 0.176240 17.753722 -4.960706 4.058945 -42.469686 4.363974 -33.668865 45.007975 -23.862751 29.263715 -1.589841 -9.567170 0.726900 -0.651050 0.149860 0.800970 -1.342213 -7.100736 -11.111987 19.629716 1.084638 60.215388 10.759750 13.944221 -9.381799 3.227210 3.246487 -7.420384 3.730412 -4.579735 49.208129 -20.072010 10.159970 4.710960 -6.645032 16.195583 -2.427508 -16.582849 10.937704 -2.583797 21.333840 -38.415419 -2.119987 -3.958260 3.843508 0.495280 0.103760 0.360660 0.092750 -0.108555 -8.414674 8.181833 56.099976 -12.945751 -18.181764 10.587647 75.272139 6.421765 2.240371 -2.062044 0.152620 -0.411260 0.107700 0.035290 
-0.718850 15.440020 -1.933720 -5.697591 -23.710983 -3.641623 -16.796745 10.297761 7.148986 30.453898 -2.210075 -51.815717 -32.394181 39.277326 60.017734 2.813577 16.185230 -0.465347 -0.180090 -0.658020 0.188030 17.672252 -4.714231 4.132204 -43.657453 4.093620 -32.363127 49.023255 -22.632135 24.584742 -1.550932 -9.210060 0.886016 -0.714000 0.163070 0.714190 -1.092347 -7.558655 -11.266241 19.577564 1.772437 59.925021 10.995911 16.119762 -14.803622 2.339556 3.658549 -8.396888 5.986141 -5.190475 52.737615 -20.008110 11.174100 8.827570 -4.063463 17.919468 -2.180349 -19.789201 7.713597 -1.612012 15.298728 -42.290103 -0.069465 -3.810360 3.889590 0.559790 0.075340 0.347660 0.099720 -0.905820 -8.482717 8.681398 60.953748 -10.577454 -19.698793 -19.381618 74.395783 -11.763456 2.137123 -1.536651 0.069030 -0.354070 0.086630 0.011650 
-0.736010 15.485140 -1.990780 -4.075419 -21.533768 -5.162839 -16.622519 10.296389 6.993226 28.705149 -3.218976 -51.116987 -30.769239 37.316486 59.703096 2.665421 15.954413 -0.431017 -0.201600 -0.622440 0.148390 17.772008 -5.178320 4.134906 -44.476951 3.950539 -31.678562 45.627580 -22.877110 27.026261 -1.527123 -9.282976 0.897732 -0.671830 0.189280 0.628830 -1.358067 -6.772903 -11.104460 19.445278 2.293074 59.558886 11.233980 15.733026 -13.817960 -0.081268 3.701731 -10.132680 7.458562 -5.890810 54.303331 -17.943530 9.438430 7.123570 -3.078597 12.856214 0.322716 -23.961457 9.696869 -3.157748 13.745459 -51.331659 -0.861565 -3.661723 3.746777 0.611780 0.057340 0.364860 0.104980 2.605760 -3.725058 8.296502 64.703408 -6.782780 -23.155950 -51.679270 71.164148 -31.735532 1.798849 -0.437274 0.003620 -0.211770 0.105280 0.012170 
